<svg width="2077" height="816" viewBox="0 0 2077 816" fill="none" xmlns="http://www.w3.org/2000/svg">
<path d="M676.611 611.325C646.435 611.325 623.181 602.982 606.85 586.297C590.874 569.611 582.887 545.114 582.887 512.808V353.582H640.932V512.808C640.932 531.624 645.547 545.469 654.778 554.345C664.008 563.22 678.209 567.658 697.38 567.658C711.58 567.658 724.716 564.995 736.787 559.67C748.857 554.345 759.33 547.245 768.206 538.369V353.582H825.719V606H772.999L770.336 579.906C758.975 588.782 745.485 596.237 729.864 602.272C714.243 608.308 696.492 611.325 676.611 611.325ZM1024.42 611.325C1001.7 611.325 981.638 607.42 964.242 599.61C946.846 591.799 933.356 578.841 923.77 560.735C914.185 542.629 909.392 518.311 909.392 487.779C909.392 457.603 914.54 432.219 924.835 411.628C935.131 390.682 949.331 374.883 967.437 364.233C985.898 353.582 1006.67 348.257 1029.74 348.257C1045.01 348.257 1058.5 350.032 1070.21 353.582C1082.29 357.133 1093.82 362.635 1104.83 370.091V247.077H1162.87V606H1113.35L1109.62 580.971C1098.26 591.267 1085.84 598.9 1072.35 603.87C1058.85 608.84 1042.88 611.325 1024.42 611.325ZM1039.86 567.658C1065.78 567.658 1087.43 558.783 1104.83 541.032V414.823C1088.14 399.912 1067.2 392.457 1041.99 392.457C1017.49 392.457 999.034 400.622 986.608 416.953C974.183 433.284 967.97 457.07 967.97 488.312C967.97 518.488 973.65 539.257 985.011 550.617C996.726 561.978 1015.01 567.658 1039.86 567.658ZM1256.62 606V353.582H1309.87L1313.06 382.871C1325.13 375.061 1339.51 367.961 1356.2 361.57C1372.88 355.18 1389.39 350.742 1405.72 348.257V392.457C1395.78 394.232 1384.95 396.895 1373.24 400.445C1361.88 403.64 1351.05 407.368 1340.76 411.628C1330.46 415.533 1321.76 419.616 1314.66 423.876V606H1256.62ZM1495.92 300.862V252.935H1559.29V300.862H1495.92ZM1500.71 606V397.782H1462.37L1467.7 353.582H1558.76V606H1500.71ZM1737.24 611.325C1719.84 611.325 1703.16 610.083 1687.18 607.598C1671.56 605.112 1658.6 602.095 1648.31 598.545V549.552C1660.38 554.167 1673.69 557.718 1688.25 560.203C1702.8 562.688 1716.65 563.93 1729.78 563.93C1749.66 563.93 1763.86 562.155 1772.38 558.605C1780.91 555.055 1785.17 548.132 1785.17 537.837C1785.17 530.381 1782.5 524.523 1777.18 520.263C1772.21 516.003 1764.57 512.098 1754.28 508.548C1744.34 504.997 1731.56 500.737 1715.94 495.767C1701.03 490.797 1688.07 485.471 1677.06 479.791C1666.06 473.756 1657.54 466.123 1651.5 456.893C1645.47 447.662 1642.45 435.591 1642.45 420.681C1642.45 397.605 1650.79 379.854 1667.48 367.428C1684.16 354.647 1710.97 348.257 1747.89 348.257C1762.44 348.257 1776.29 349.322 1789.43 351.452C1802.56 353.582 1813.74 356.245 1822.97 359.44V407.9C1813.03 403.995 1802.03 400.977 1789.96 398.847C1778.24 396.717 1767.24 395.652 1756.94 395.652C1738.48 395.652 1724.46 397.25 1714.87 400.445C1705.64 403.64 1701.03 410.03 1701.03 419.616C1701.03 429.556 1705.82 436.657 1715.4 440.917C1725.34 444.822 1741.14 450.325 1762.8 457.425C1782.68 463.46 1798.48 469.851 1810.19 476.596C1821.91 483.341 1830.25 491.507 1835.22 501.092C1840.55 510.323 1843.21 522.393 1843.21 537.304C1843.21 562.155 1834.16 580.794 1816.05 593.219C1797.95 605.29 1771.67 611.325 1737.24 611.325ZM2015.33 611.325C1988.35 611.325 1968.12 604.225 1954.63 590.024C1941.49 575.468 1934.92 555.765 1934.92 530.914V398.847H1897.64V353.582H1934.92V295.537L1992.43 277.964V353.582H2059.53L2055.81 398.847H1992.43V527.719C1992.43 542.274 1995.81 552.57 2002.55 558.605C2009.3 564.285 2020.3 567.126 2035.57 567.126C2045.15 567.126 2055.27 565.35 2065.92 561.8V602.805C2052.08 608.485 2035.21 611.325 2015.33 611.325Z" fill="#464A53"/>
<path d="M18.5 562V565.5H22H62H65.5V562V83V79.5H62H22H18.5V83V562Z" fill="#464A53" stroke="#464A53" stroke-width="7"/>
<path d="M241.5 99V101.5H244H280H282.5V99V5V2.5H280H244H241.5V5V99Z" fill="#464A53" stroke="#464A53" stroke-width="5"/>
<path d="M241.5 620V622.5H244H280H282.5V620V526V523.5H280H244H241.5V526V620Z" fill="#464A53" stroke="#464A53" stroke-width="5"/>
<path d="M338.5 99V101.5H341H377H379.5V99V5V2.5H377H341H338.5V5V99Z" fill="#464A53" stroke="#464A53" stroke-width="5"/>
<path d="M338.5 620V622.5H341H377H379.5V620V526V523.5H377H341H338.5V526V620Z" fill="#464A53" stroke="#464A53" stroke-width="5"/>
<path d="M488.389 541V543.458L486.078 544.292C446.764 558.483 395.238 565.5 331.659 565.5C266.896 565.5 217.203 554.465 183.056 531.921C148.665 509.216 131.5 475.568 131.5 431.5C131.5 407.966 136.814 387.32 147.571 369.694C158.384 351.473 176.445 336.089 201.385 323.4C225.838 310.183 259.785 299.105 303.062 290.078C341.227 281.594 371.094 273.385 392.731 265.463C414.253 257.584 429.135 248.14 437.863 237.369C446.037 226.111 450.252 211.657 450.252 193.75C450.252 161.866 437.701 139.374 412.726 125.563L412.717 125.558L412.709 125.553C386.693 110.974 349.147 103.5 299.702 103.5C250.83 103.5 206.948 109.713 168.017 122.086L163.457 123.535V118.75V82V79.3781L165.973 78.6411C179.849 74.577 199.692 70.5494 225.416 66.5417C251.291 62.5105 279.06 60.5 308.716 60.5C373.493 60.5 422.215 72.5377 454.247 97.2262C485.711 121.397 501.5 153.678 501.5 193.75C501.5 216.771 496.465 236.913 486.257 254.042L486.236 254.078L486.213 254.114C475.388 271.322 457.866 285.702 433.986 297.394L433.945 297.414L433.903 297.433C409.539 308.583 377.03 318.398 336.476 326.925L336.453 326.93L336.43 326.935C298.292 334.415 268.214 342.614 246.106 351.498L246.062 351.515L246.017 351.532C223.407 359.908 207.39 370.362 197.552 382.684C187.786 394.916 182.748 411.081 182.748 431.5C182.748 464.959 195.357 488.158 220.274 501.937C245.728 516.013 283.81 523.25 334.937 523.25C389.244 523.25 438.851 515.794 483.79 500.927L488.389 499.406V504.25V541Z" fill="#464A53" stroke="#464A53" stroke-width="7"/>
<circle cx="42" cy="64" r="42" fill="#464A53"/>
<circle cx="42" cy="578" r="42" fill="#464A53"/>
</svg>
